<?xml version="1.0" encoding="utf-8"?>
<!-- Generator: Adobe Illustrator 16.0.4, SVG Export Plug-In . SVG Version: 6.00 Build 0)  -->
<!DOCTYPE svg PUBLIC "-//W3C//DTD SVG 1.1//EN" "http://www.w3.org/Graphics/SVG/1.1/DTD/svg11.dtd">
<svg version="1.1" id="Layer_1" xmlns="http://www.w3.org/2000/svg" xmlns:xlink="http://www.w3.org/1999/xlink" x="0px" y="0px"
	 width="201.801px" height="200.667px" viewBox="0 0 201.801 200.667" enable-background="new 0 0 201.801 200.667"
	 xml:space="preserve">
<radialGradient id="SVGID_1_" cx="395.0059" cy="-279.4224" r="96.0784" gradientTransform="matrix(1 0 0 -1 -293.5 -177.833)" gradientUnits="userSpaceOnUse">
	<stop  offset="0" style="stop-color:#A50D12"/>
	<stop  offset="0.3" style="stop-color:#A50D12"/>
	<stop  offset="0.5347" style="stop-color:#A30E12"/>
	<stop  offset="0.6195" style="stop-color:#9C0D11"/>
	<stop  offset="0.68" style="stop-color:#910C0F"/>
	<stop  offset="0.729" style="stop-color:#820B0D"/>
	<stop  offset="0.7709" style="stop-color:#700909"/>
	<stop  offset="0.8081" style="stop-color:#5C0505"/>
	<stop  offset="0.8417" style="stop-color:#460000"/>
	<stop  offset="0.8727" style="stop-color:#2D0000"/>
	<stop  offset="0.9013" style="stop-color:#0D0000"/>
	<stop  offset="0.9268" style="stop-color:#000000"/>
	<stop  offset="0.93" style="stop-color:#000000"/>
	<stop  offset="1" style="stop-color:#000000"/>
</radialGradient>
<circle fill="url(#SVGID_1_)" cx="101.506" cy="101.589" r="96.078"/>
<g>
	<circle fill="#FFFFFF" cx="101.748" cy="13.171" r="2.162"/>
	<circle fill="#FFFFFF" cx="190.248" cy="101.663" r="2.162"/>
	<circle fill="#FFFFFF" cx="101.756" cy="190.164" r="2.162"/>
	<circle fill="#FFFFFF" cx="13.256" cy="101.671" r="2.162"/>
	<circle fill="#FFFFFF" cx="189.879" cy="93.598" r="2.162"/>
	<circle fill="#FFFFFF" cx="109.82" cy="189.794" r="2.162"/>
	<circle fill="#FFFFFF" cx="13.625" cy="109.737" r="2.162"/>
	<circle fill="#FFFFFF" cx="93.683" cy="13.54" r="2.162"/>
	<circle fill="#FFFFFF" cx="110.45" cy="13.6" r="2.162"/>
	<circle fill="#FFFFFF" cx="189.82" cy="110.365" r="2.162"/>
	<circle fill="#FFFFFF" cx="93.054" cy="189.734" r="2.162"/>
	<circle fill="#FFFFFF" cx="13.684" cy="92.969" r="2.162"/>
	<circle fill="#FFFFFF" cx="119.066" cy="14.882" r="2.162"/>
	<circle fill="#FFFFFF" cx="188.538" cy="118.982" r="2.161"/>
	<circle fill="#FFFFFF" cx="84.437" cy="188.453" r="2.162"/>
	<circle fill="#FFFFFF" cx="14.966" cy="84.351" r="2.162"/>
	<circle fill="#FFFFFF" cx="127.518" cy="17.005" r="2.161"/>
	<circle fill="#FFFFFF" cx="186.414" cy="127.433" r="2.161"/>
	<path fill="#FFFFFF" d="M73.918,185.701c0.348-1.144,1.557-1.787,2.699-1.439c1.143,0.35,1.783,1.555,1.436,2.697
		c-0.346,1.145-1.553,1.787-2.695,1.438C74.217,188.05,73.57,186.841,73.918,185.701z"/>
	<circle fill="#FFFFFF" cx="17.089" cy="75.901" r="2.162"/>
	<circle fill="#FFFFFF" cx="135.717" cy="19.949" r="2.162"/>
	<circle fill="#FFFFFF" cx="183.471" cy="135.633" r="2.161"/>
	<path fill="#FFFFFF" d="M65.789,182.557c0.457-1.104,1.725-1.627,2.828-1.169c1.102,0.461,1.623,1.723,1.164,2.826
		c-0.457,1.104-1.721,1.625-2.824,1.166C65.857,184.923,65.332,183.66,65.789,182.557z"/>
	<circle fill="#FFFFFF" cx="20.033" cy="67.701" r="2.162"/>
	<path fill="#FFFFFF" d="M145.49,24.708c-0.562,1.052-1.873,1.447-2.924,0.883c-1.055-0.565-1.449-1.875-0.885-2.928
		c0.565-1.053,1.875-1.447,2.928-0.883S146.057,23.654,145.49,24.708z"/>
	<circle fill="#FFFFFF" cx="179.732" cy="143.504" r="2.161"/>
	<path fill="#FFFFFF" d="M58.01,178.628c0.562-1.055,1.875-1.449,2.928-0.885c1.053,0.566,1.445,1.873,0.883,2.926
		c-0.564,1.056-1.875,1.449-2.926,0.885C57.844,180.992,57.447,179.68,58.01,178.628z"/>
	<circle fill="#FFFFFF" cx="23.769" cy="59.83" r="2.162"/>
	<path fill="#FFFFFF" d="M152.846,29.381c-0.662,0.991-2.006,1.256-2.998,0.591c-0.992-0.666-1.256-2.009-0.59-3
		c0.666-0.992,2.006-1.257,2.998-0.591C153.248,27.046,153.514,28.388,152.846,29.381z"/>
	<circle fill="#FFFFFF" cx="175.242" cy="150.969" r="2.161"/>
	<path fill="#FFFFFF" d="M50.652,173.957c0.664-0.996,2.01-1.261,3.002-0.595c0.99,0.668,1.254,2.007,0.59,2.999
		c-0.664,0.994-2.008,1.258-2.996,0.592C50.256,176.289,49.99,174.946,50.652,173.957z"/>
	<circle fill="#FFFFFF" cx="28.26" cy="52.365" r="2.162"/>
	<path fill="#FFFFFF" d="M159.705,34.755c-0.756,0.921-2.119,1.053-3.041,0.293c-0.922-0.76-1.053-2.122-0.293-3.043
		c0.762-0.922,2.121-1.054,3.043-0.293C160.336,32.471,160.467,33.833,159.705,34.755z"/>
	<path fill="#FFFFFF" d="M168.664,159.625c-0.924-0.761-1.057-2.123-0.295-3.043c0.76-0.922,2.121-1.054,3.041-0.293
		c0.924,0.76,1.057,2.121,0.293,3.043C170.945,160.251,169.584,160.382,168.664,159.625z"/>
	<path fill="#FFFFFF" d="M43.793,168.582c0.758-0.926,2.123-1.057,3.045-0.297c0.92,0.764,1.049,2.12,0.293,3.043
		c-0.76,0.924-2.123,1.053-3.041,0.295C43.168,170.863,43.035,169.501,43.793,168.582z"/>
	<circle fill="#FFFFFF" cx="33.464" cy="45.377" r="2.162"/>
	<path fill="#FFFFFF" d="M166.004,40.778c-0.844,0.843-2.213,0.84-3.057-0.007c-0.842-0.847-0.838-2.216,0.01-3.058
		c0.848-0.843,2.213-0.84,3.057,0.008C166.855,38.567,166.854,39.935,166.004,40.778z"/>
	<path fill="#FFFFFF" d="M162.641,165.923c-0.846-0.85-0.842-2.217,0.004-3.06c0.851-0.842,2.217-0.839,3.058,0.009
		c0.846,0.848,0.842,2.215-0.009,3.057C164.85,166.772,163.48,166.768,162.641,165.923z"/>
	<path fill="#FFFFFF" d="M37.494,162.557c0.844-0.847,2.217-0.843,3.059,0.005c0.842,0.85,0.836,2.213-0.008,3.057
		c-0.846,0.846-2.215,0.84-3.055-0.007C36.646,164.767,36.648,163.399,37.494,162.557z"/>
	<path fill="#FFFFFF" d="M40.863,37.411c0.84,0.846,0.838,2.217-0.01,3.057c-0.848,0.844-2.215,0.84-3.057-0.008
		c-0.842-0.846-0.842-2.216,0.01-3.057C38.652,36.562,40.021,36.565,40.863,37.411z"/>
	<path fill="#FFFFFF" d="M171.68,47.391c-0.922,0.756-2.285,0.618-3.041-0.308c-0.756-0.925-0.617-2.287,0.31-3.042
		c0.928-0.755,2.286-0.618,3.043,0.309C172.744,45.274,172.607,46.635,171.68,47.391z"/>
	<path fill="#FFFFFF" d="M156.027,171.599c-0.758-0.928-0.621-2.289,0.305-3.044c0.928-0.755,2.289-0.616,3.041,0.309
		c0.758,0.927,0.619,2.288-0.309,3.041C158.143,172.662,156.779,172.523,156.027,171.599z"/>
	<path fill="#FFFFFF" d="M31.816,155.943c0.926-0.758,2.291-0.619,3.045,0.307c0.752,0.928,0.613,2.285-0.309,3.041
		c-0.924,0.758-2.285,0.617-3.039-0.308C30.758,158.06,30.895,156.699,31.816,155.943z"/>
	<circle fill="#FFFFFF" cx="45.801" cy="33.101" r="2.162"/>
	<path fill="#FFFFFF" d="M176.678,54.53c-0.992,0.662-2.336,0.391-2.996-0.604c-0.66-0.995-0.389-2.337,0.605-2.997
		c0.998-0.66,2.336-0.391,2.998,0.606C177.945,52.528,177.676,53.87,176.678,54.53z"/>
	<path fill="#FFFFFF" d="M148.889,176.597c-0.666-0.998-0.393-2.34,0.603-2.999s2.338-0.39,2.995,0.604
		c0.662,0.998,0.392,2.338-0.604,2.996C150.889,177.862,149.545,177.589,148.889,176.597z"/>
	<path fill="#FFFFFF" d="M26.818,148.802c0.994-0.662,2.342-0.391,3,0.605c0.656,0.997,0.387,2.334-0.605,2.995
		c-0.994,0.663-2.336,0.392-2.996-0.604C25.555,150.806,25.826,149.462,26.818,148.802z"/>
	<circle fill="#FFFFFF" cx="52.813" cy="27.932" r="2.162"/>
	<path fill="#FFFFFF" d="M180.949,62.125c-1.053,0.562-2.361,0.159-2.922-0.896c-0.562-1.056-0.158-2.364,0.896-2.924
		c1.06-0.559,2.363-0.159,2.925,0.898C182.408,60.258,182.006,61.567,180.949,62.125z"/>
	<path fill="#FFFFFF" d="M141.291,180.869c-0.564-1.059-0.16-2.365,0.895-2.925c1.058-0.56,2.365-0.157,2.922,0.897
		c0.562,1.057,0.158,2.363-0.896,2.922C143.158,182.326,141.848,181.921,141.291,180.869z"/>
	<path fill="#FFFFFF" d="M22.547,141.207c1.055-0.562,2.367-0.158,2.926,0.896c0.555,1.059,0.154,2.359-0.898,2.922
		c-1.053,0.562-2.361,0.159-2.92-0.896C21.092,143.076,21.494,141.766,22.547,141.207z"/>
	<circle fill="#FFFFFF" cx="60.301" cy="23.477" r="2.162"/>
	<circle fill="#FFFFFF" cx="183.634" cy="68.104" r="2.161"/>
	<path fill="#FFFFFF" d="M133.312,184.373c-0.459-1.107,0.071-2.369,1.176-2.822c1.107-0.451,2.369,0.076,2.82,1.182
		c0.453,1.105-0.074,2.367-1.181,2.818C135.025,186.005,133.762,185.475,133.312,184.373z"/>
	<path fill="#FFFFFF" d="M19.043,133.226c1.105-0.454,2.371,0.074,2.822,1.179c0.449,1.107-0.078,2.365-1.18,2.82
		c-1.104,0.456-2.365-0.074-2.82-1.181C17.41,134.944,17.939,133.68,19.043,133.226z"/>
	<circle fill="#FFFFFF" cx="68.19" cy="19.78" r="2.162"/>
	<path fill="#FFFFFF" d="M187.156,78.389c-1.143,0.346-2.348-0.306-2.691-1.449c-0.342-1.145,0.309-2.35,1.453-2.691
		c1.146-0.342,2.348,0.307,2.691,1.452C188.951,76.844,188.303,78.049,187.156,78.389z"/>
	<path fill="#FFFFFF" d="M125.025,187.076c-0.346-1.147,0.307-2.353,1.449-2.693c1.146-0.342,2.35,0.309,2.688,1.453
		c0.344,1.146-0.308,2.349-1.451,2.688C126.57,188.869,125.365,188.216,125.025,187.076z"/>
	<path fill="#FFFFFF" d="M16.34,124.941c1.145-0.344,2.354,0.309,2.693,1.45c0.338,1.146-0.311,2.346-1.453,2.69
		c-1.141,0.344-2.346-0.308-2.689-1.451C14.547,126.49,15.197,125.285,16.34,124.941z"/>
	<path fill="#FFFFFF" d="M78.477,16.258c0.34,1.142-0.311,2.349-1.455,2.69c-1.145,0.34-2.35-0.309-2.689-1.454
		c-0.342-1.142,0.307-2.351,1.453-2.689C76.93,14.465,78.135,15.114,78.477,16.258z"/>
	<path fill="#FFFFFF" d="M189.029,86.9c-1.17,0.231-2.305-0.535-2.535-1.707c-0.227-1.172,0.539-2.308,1.711-2.535
		c1.176-0.228,2.307,0.536,2.537,1.71C190.969,85.539,190.205,86.674,189.029,86.9z"/>
	<path fill="#FFFFFF" d="M116.514,188.951c-0.229-1.177,0.537-2.312,1.707-2.537c1.176-0.229,2.309,0.537,2.535,1.709
		c0.227,1.174-0.537,2.308-1.709,2.533C117.875,190.886,116.74,190.119,116.514,188.951z"/>
	<path fill="#FFFFFF" d="M14.465,116.429c1.174-0.229,2.312,0.537,2.537,1.708c0.225,1.175-0.539,2.304-1.709,2.534
		s-2.305-0.535-2.535-1.709C12.527,117.794,13.295,116.658,14.465,116.429z"/>
	<path fill="#FFFFFF" d="M86.986,14.383c0.227,1.17-0.539,2.307-1.711,2.535c-1.174,0.225-2.309-0.539-2.533-1.712
		c-0.229-1.17,0.535-2.309,1.711-2.534C85.623,12.447,86.76,13.211,86.986,14.383z"/>
</g>
<g>
	<g>
		<path id="SVGID_2_" fill="#ED1C24" d="M44.053,153.101c0.211-0.207,0.426-0.43,0.645-0.656
			C44.268,152.863,44.053,153.101,44.053,153.101 M114.451,141.601c-43.055-17.219-61.176,2.055-69.754,10.844
			c4.07-3.961,27.297-23.777,67.25-4.273c45.195,22.066,60.297-11.352,61.906-16.43
			C173.854,131.742,163.865,161.363,114.451,141.601"/>
	</g>
</g>
<g>
	<g>
		<path id="SVGID_4_" fill="#FFFFFF" d="M44.826,155.152c0.039-0.02,0.082-0.047,0.117-0.066
			C44.865,155.128,44.826,155.152,44.826,155.152 M44.943,155.085c1.809-1.09,24.363-13.789,61.184,6.008
			c40.629,21.75,55.191-9.539,57.148-13.879c0,0-12.121,27.258-56.535,7.117c-12.688-5.75-23.355-7.949-32.465-7.953
			C61.998,146.378,52.584,150.39,44.943,155.085"/>
	</g>
</g>
<g>
	<g>
		<path id="SVGID_6_" fill="#1C75BC" d="M132.85,169.199c0.023-0.039,0.043-0.055,0.043-0.055
			C132.873,169.16,132.865,169.183,132.85,169.199 M45.666,157.382c0.387-0.109,0.777-0.215,1.172-0.32
			C46.064,157.242,45.666,157.382,45.666,157.382 M46.838,157.062c4.371-0.992,20.559-3.109,42.898,12.68
			c27.122,19.176,41.062,2.082,43.114-0.543c-0.738,0.922-11.25,13.051-40.379-5.102c-11.566-7.203-21.16-9.469-29.527-9.469
			C57.053,154.628,51.775,155.753,46.838,157.062"/>
	</g>
</g>
<polygon fill="#FFFFFF" points="131.557,126.296 128.346,136.242 121.033,132.71 126.764,142.046 123.752,150.41 129.514,148.222 
	136.869,159.304 134.268,145.687 140.182,141.96 133.361,138.703 "/>
<polygon fill="#FFFFFF" points="149.055,128.384 146.564,136.091 140.896,133.354 145.339,140.589 143.005,147.071 147.471,145.376 
	153.171,153.964 151.152,143.412 155.736,140.523 150.452,138 "/>
<path fill="#FFFFFF" d="M64.57,46.288c-4.215,3.802-7.227,9.448-7.227,9.448c0.564,0.226,1.129,0.603,1.129,0.603
	c0.678,0.452,1.018,1.092,1.018,1.092c0.111,0.263-0.076,0.338-0.076,0.338c-0.113,0.076-0.301-0.188-0.301-0.188
	c-0.904-0.791-2.109-1.167-2.109-1.167c-2.559,4.743-2.859,7.416-2.859,7.416c-0.189,1.317,0.301,1.882,0.301,1.882
	c0.188,0.151,0.188,0.339,0.188,0.339c-0.037,0.264-0.602,0.038-0.602,0.038c-1.996-0.979-2.033-3.35-2.033-3.35
	c-0.15-2.146,0.865-4.442,0.865-4.442c0.49-1.129,0.828-1.995,0.828-1.995c-3.801,0.339-6.061,0.753-6.061,0.753
	c-2.748,2.635-5.871,5.308-5.871,5.308c-1.846,1.656-3.916,3.2-5.459,4.253c-1.016,0.678-2.107,1.28-2.107,1.28
	c-0.678,0.414-1.432,0.602-1.996,0.677c-1.242,0.151-2.221-0.979-2.221-0.979l-1.693-2.296c-0.227-0.339-0.037-0.452-0.037-0.452
	c0.111-0.15,0.301,0,0.301,0c0.564,0.64,1.73,0.64,1.73,0.64c2.748,0.263,9.486-4.743,9.486-4.743
	c3.238-2.522,3.576-2.861,3.576-2.861c-1.656,0.339-3.537,0.715-3.537,0.715c-1.809,0.376-2.748,0.338-2.748,0.338
	c-1.92,0.038-3.652-2.748-3.652-2.748l-0.264-0.452c-0.15-0.226,0.037-0.263,0.037-0.263c0.113-0.075,0.227,0,0.227,0
	c0.602,0.452,1.732,0.489,1.732,0.489c2.258,0.038,4.555-0.188,4.555-0.188c5.834-0.226,6.549-0.376,6.549-0.376
	c6.1-4.969,8.094-6.55,8.094-6.55c6.814-5.496,8.094-6.173,8.094-6.173c0.074-0.038,0.15-0.075,0.15-0.075
	c0.15-0.076,0.49,0.226,0.49,0.226c1.279,1.205,1.807,2.372,1.807,2.372c0.301,0.715,0.037,0.941,0.037,0.941
	C64.873,46.175,64.57,46.288,64.57,46.288z M60.055,46.476c0,0-4.066,2.974-10.428,8.733c0,0,2.258-0.075,4.631,0
	c0,0,2.221-3.764,5.908-8.658c0,0,0.039-0.076,0-0.113C60.166,46.438,60.129,46.4,60.055,46.476z"/>
<path fill="#FFFFFF" d="M74.703,56.301c-4.33,6.098-5.686,8.281-5.686,8.281c-0.488,0.715-1.092,0.678-1.092,0.678
	s-2.107-0.038-2.559-2.673c-0.076-0.338-0.037-0.828,0.037-1.393c0.188-1.28,0.791-2.673,0.791-2.673l-0.076-0.038
	c-3.275,5.308-4.291,6.512-4.291,6.512c-0.377,0.415-0.941,0.264-0.941,0.264c-0.828-0.264-1.279-1.016-1.279-1.016l-0.301-0.414
	c-1.092-1.28-0.865-3.125-0.865-3.125c0.225-2.748,3.5-6.926,3.5-6.926l1.693-2.259c0.15-0.226,0.15-0.564,0.15-0.564
	c-0.074-0.188,0.15-0.264,0.15-0.264c0.227-0.151,0.791,0.264,0.791,0.264c1.205,0.866,1.318,1.882,1.318,1.882
	c0.074,0.678-0.453,1.28-0.453,1.28c-3.387,3.275-4.629,7.04-4.629,7.04c-0.49,1.581-0.377,2.259-0.377,2.259
	c0,0.075,0.113-0.038,0.113-0.038c9.449-11.218,9.711-11.594,9.711-11.594c0.039-0.301,0.189-0.301,0.189-0.301
	c0.113-0.038,0.301,0.113,0.301,0.113c1.092,0.753,1.693,1.431,1.693,1.431c0.264,0.263,0.189,0.677,0.189,0.677
	c-0.076,0.565-0.641,1.092-0.641,1.092c-0.979,1.242-1.693,2.259-1.693,2.259c-3.125,4.141-2.635,6.023-2.635,6.023l0.037,0.038
	c4.555-4.517,6.398-7.152,6.398-7.152c0.189-0.301,0.453-0.15,0.453-0.15C74.967,55.962,74.703,56.301,74.703,56.301z"/>
<path fill="#FFFFFF" d="M82.91,52.423c-1.844,0.527-2.936,0.527-2.936,0.527c-5.609,6.776-5.836,10.051-5.836,10.051
	c-0.037,0.564,0.264,0.866,0.264,0.866c0.189,0.075,0.564-0.113,0.564-0.113c1.807-0.979,4.668-4.216,4.668-4.216l3.389-3.915
	c0.15-0.15,0.301-0.038,0.301-0.038c0.15,0.075-0.037,0.301-0.037,0.301c-2.674,3.802-4.104,6.098-4.104,6.098
	c-1.732,2.56-2.521,3.011-2.521,3.011c-0.527,0.376-1.018,0.339-1.018,0.339c-0.225,0.038-0.979-0.263-0.979-0.263
	c-0.564-0.226-1.205-0.791-1.205-0.791c-0.414-0.376-0.828-0.866-1.092-1.506c-0.414-0.64-0.262-2.033-0.262-2.033
	c0.111-0.828,0.451-1.882,1.166-3.237c0.865-1.619,2.748-4.367,2.748-4.367l0.037-0.038c-1.316-0.038-2.145-0.414-2.145-0.414
	c-0.15-0.038-0.113-0.226-0.113-0.226c-0.037-0.075,0.301-0.15,0.301-0.15c0.641-0.226,2.785-0.414,2.785-0.414
	c2.523-3.614,2.898-4.292,2.898-4.292c0.604-0.903,0.564-1.506,0.564-1.506c0-0.075-0.037-0.113-0.037-0.113
	c-0.037-0.15,0.15-0.188,0.15-0.188c0.113,0,0.453,0.15,0.453,0.15c1.768,0.791,2.107,2.259,2.107,2.259
	c0.15,0.903-0.641,1.844-0.641,1.844l-1.316,1.619c1.43,0.038,1.807,0.113,1.807,0.113c0.451,0.038,0.451,0.226,0.451,0.226
	C83.438,52.273,82.91,52.423,82.91,52.423z"/>
<path fill="#FFFFFF" d="M90.553,65.072c-0.188,0.263-0.639,0.263-0.639,0.263c-1.018-0.038-1.846-1.091-1.846-1.091
	c-1.166-1.129-1.166-2.334-1.166-2.334c0-1.28,0.678-2.786,0.678-2.786c1.807-3.877,3.236-5.684,3.236-5.684l-0.037-0.038
	c-7.266,7.717-8.621,9.674-8.621,9.674c-0.488,0.791-0.639,1.28-0.639,1.28c-0.076,0.188-0.037,0.376-0.037,0.376
	c0.037,0.188-0.039,0.301-0.039,0.301c-0.188,0.075-0.375-0.076-0.375-0.076c-1.355-1.054-1.318-1.995-1.318-1.995
	c0-0.866,0.752-2.146,0.752-2.146c5.986-9.862,8.584-14.003,8.584-14.003c1.203-1.995,1.467-3.614,1.467-3.614
	c0-0.376-0.111-0.564-0.111-0.564c-0.039-0.075,0-0.113,0-0.113c0.074-0.075,0.188,0,0.188,0c1.092,0.715,1.844,1.694,1.844,1.694
	c0.904,1.016,0.828,1.882,0.828,1.882c-0.037,0.715-0.639,1.506-0.639,1.506c-6.852,9.223-7.229,9.75-7.229,9.75
	c-0.037,0.038,0,0.038,0,0.038c0.037,0.038,0.076,0,0.076,0l6.889-6.776c0.15-0.226,0.301-0.264,0.301-0.264
	c0.188-0.075,0.377,0.113,0.377,0.113c0.225,0.188,0.902,0.753,1.129,0.979c0.602,0.564,0.828,0.828,0.828,0.828
	c0.264,0.263,0.188,0.602,0.188,0.602c0,0.376-0.264,0.678-0.264,0.678c-2.822,3.425-4.102,5.609-4.102,5.609
	c-1.883,3.35-1.809,4.329-1.809,4.329c0,0.075,0.152,0,0.152,0c1.129-0.301,6.662-6.851,6.662-6.851
	c0.227-0.264,0.338-0.188,0.338-0.188c0.264,0.075,0.076,0.452,0.076,0.452C91.457,64.281,90.553,65.072,90.553,65.072z"/>
<path fill="#FFFFFF" d="M103.654,59.99c-3.463,5.571-6.926,5.232-6.926,5.232c-0.902-0.113-1.166-0.489-1.166-0.489
	c-1.656-0.678-1.695-2.861-1.695-2.861c-0.074-0.904,0.303-2.259,0.303-2.259c0.225-0.791,0.564-1.731,1.166-2.786
	c0.377-0.678,0.865-1.393,1.506-2.108c0.641-0.715,1.393-1.506,2.297-2.221c0.564-0.452,1.354-0.828,1.354-0.828
	c0.527-0.339,1.243-0.489,1.846-0.527c0.791-0.038,1.394,0.602,1.394,0.602c0.602,0.64,0.828,1.393,0.828,1.393
	c0.112,0.339-0.228,0.452-0.228,0.452c-0.301,0.038-0.414-0.113-0.414-0.113c-0.073-0.151-0.265-0.113-0.265-0.113
	c-2.821,0.677-5.646,4.442-5.646,4.442c-2.973,4.178-2.107,6.211-2.107,6.211c0.037,0.113,0.301,0.113,0.301,0.113
	c0.867,0.113,2.748-1.694,2.748-1.694c0.867-0.828,3.162-3.802,3.877-5.797c0.414-0.979,0.453-1.882,0.453-1.882
	c0.037-0.376-0.227-0.489-0.227-0.489c-0.15-0.075-0.113-0.151-0.113-0.151c0.039-0.038,0.149-0.075,0.149-0.075
	c0.904-0.075,1.433,0.565,1.433,0.565c0.526,0.527,0.487,1.355,0.487,1.355C105.236,57.543,103.654,59.99,103.654,59.99z"/>
<path fill="#FFFFFF" d="M111.299,64.394c-0.791,1.054-1.393,0.903-1.393,0.903s-2.748-0.941-2.748-3.35
	c0-0.678,0.188-1.581,0.865-2.598c2.975-4.442,4.403-5.759,4.403-5.759l0.037-0.113l-0.037-0.038
	c-1.993,0.941-3.312,1.167-3.312,1.167l-4.555,6.061c0,0-0.451,0.414-0.828,0.188c0,0-0.265-0.038-0.113-0.376l4.705-6.211
	c-0.828-0.753-0.639-2.146-0.639-2.146c0.188-1.656,1.729-3.162,1.729-3.162c0.563-0.678,1.317-0.151,1.317-0.151
	c0.902,0.489,1.054,1.317,1.054,1.317c0.112,0.264-0.265,0.866-0.265,0.866c-0.451,0.715-0.602,0.903-0.602,0.903
	c-0.037,0.15,0.076,0.15,0.076,0.15l1.316-0.301c0.489-0.113,0.979,0.151,0.979,0.151c1.131,0.64,1.656,1.28,1.656,1.28
	c0.453,0.527,0.377,1.054,0.377,1.054c0,0.301-0.338,0.64-0.338,0.64c-1.656,2.033-3.162,4.179-3.162,4.179
	c-1.018,1.317-1.883,2.672-2.26,3.538c-0.265,0.64-0.226,1.092-0.226,1.092c0.488-0.113,0.979-0.64,0.979-0.64
	c1.506-1.355,3.199-3.237,3.199-3.237s1.844-1.92,2.711-3.049c0.188-0.301,0.375-0.188,0.375-0.188c0.264,0.151,0,0.527,0,0.527
	C112.201,63.34,111.299,64.394,111.299,64.394z"/>
<path fill="#FFFFFF" d="M118.604,64.733c-0.451,0.64-1.092,0.64-1.092,0.64c-1.092-0.038-1.883-1.054-1.883-1.054
	c-1.354-1.017-1.393-2.56-1.393-2.56c-0.037-1.091,0.867-2.974,0.867-2.974c1.506-3.463,4.969-7.754,4.969-7.754
	c0.113-0.113,0.301-0.075,0.301-0.075c0.15-0.038,0.414,0.15,0.414,0.15c1.055,0.866,1.43,1.317,1.43,1.317
	c0.227,0.226,0.264,0.452,0.264,0.452c0.037,0.151-0.264,0.49-0.264,0.49c-2.445,2.936-3.84,5.345-3.84,5.345
	c-2.258,3.915-2.07,4.931-2.07,4.931c0.189,0.188,0.453,0,0.453,0c3.012-2.334,7.039-7.19,7.039-7.19l0.188-0.226
	c0.15-0.188,0.378-0.038,0.378-0.038c0.188,0.15,0.036,0.376,0.036,0.376C119.809,63.265,118.604,64.733,118.604,64.733z
	 M126.17,46.4c-3.049,3.049-4.254,3.877-4.254,3.877l-0.377,0.301c-0.188,0.15-0.375-0.038-0.375-0.038
	c-0.264-0.075,0.111-0.791,0.111-0.791c2.184-4.366,2.748-5.232,2.748-5.232c0.113-0.301,0.377-0.376,0.377-0.376
	c0.113-0.113,0.49,0.075,0.49,0.075c0.149,0.113,0.678,0.452,0.678,0.452c0.602,0.414,0.752,0.64,0.752,0.64
	c0.227,0.188,0.188,0.49,0.188,0.49C126.434,46.099,126.17,46.4,126.17,46.4z"/>
<path fill="#FFFFFF" d="M135.393,54.418c-1.729,2.07-6.586,3.765-6.586,3.765l-3.312,1.129c3.123,0.038,4.215,0.64,4.215,0.64
	c3.39-1.506,4.44-1.769,4.44-1.769c0.453-0.226,0.566,0.075,0.566,0.075c0.188,0.226-0.303,0.452-0.303,0.452
	c-3.162,1.468-4.178,1.958-4.178,1.958c0.264,0.602,0.227,1.581,0.227,1.581c-0.227,4.028-4.818,6.775-4.818,6.775
	c-3.539,2.334-6.514,2.485-6.514,2.485c-1.807,0.038-2.371-1.355-2.371-1.355c-0.527-0.64-0.338-1.43-0.338-1.43
	c-0.039-0.715,1.166-1.619,1.166-1.619c0.979-0.753,2.297-1.619,2.297-1.619c0.678-0.49,1.467-1.017,2.258-1.468
	c1.695-0.979,2.635-1.506,3.353-1.92c0.901-0.527,1.394-0.791,2.56-1.43c-0.979-0.414-4.519-0.527-4.519-0.527
	c-0.414,0.113-0.603-0.376-0.603-0.376l-0.34-1.543c-0.301-0.64,0.377-0.828,0.377-0.828c8.057-2.296,10.955-4.555,10.955-4.555
	l-0.037-0.075c-5.91,1.92-6.777,2.296-6.777,2.296c-0.602,0.15-1.016,0.15-1.016,0.15s-1.092,0.075-1.543-2.07
	c-0.227-1.017,0.15-1.017,0.15-1.017c0.113-0.113,0.377-0.038,0.377-0.038c0.262,0.151,0.939,0.151,0.939,0.151
	c0.979-0.038,1.77-0.113,1.77-0.113c5.422-0.338,6.551-0.715,6.551-0.715c0.527-0.076,0.715,0.188,0.715,0.188
	c0.564,0.828,0.603,2.259,0.603,2.259C135.656,54.155,135.393,54.418,135.393,54.418z M118.152,67.895c0,0-0.941,0.677-0.791,1.016
	c0,0,0.303,0.376,2.711-0.263c0,0,8.357-2.748,8.922-7.341C128.994,61.307,122.406,64.62,118.152,67.895z"/>
<path fill="#FFFFFF" d="M141.908,62.286c-1.018,1.205-2.033,2.258-2.748,2.786c-0.414,0.301-1.018,0.301-1.018,0.301
	c-1.166-0.075-2.185-0.866-2.185-0.866c-0.938-0.677-1.354-1.129-1.354-1.129c-0.903-0.752-0.867-2.108-0.867-2.108
	c-0.073-2.108,1.281-4.329,1.281-4.329c0.414-0.715,2.408-4.178,6.699-5.872c0.113-0.038,0.377,0.15,0.377,0.15
	c1.279,0.866,1.92,2.259,1.92,2.259c0.074,0.075,0.113,0.15,0.113,0.15c0.113,0.038,0.225,0.226,0.225,0.226
	c0.265,0.263,0.076,0.791,0.076,0.791c-0.414,1.091-1.543,2.221-1.543,2.221c-1.883,2.07-3.275,1.92-3.275,1.92
	c-0.754-0.113-1.655-1.167-1.655-1.167c-0.754,0.903-1.354,2.146-1.354,2.146c-0.228,0.452-0.414,0.941-0.564,1.468
	c-0.076,0.301-0.15,0.64-0.188,0.979c-0.076,1.731,0.901,1.844,0.901,1.844c0.791,0.075,2.446-1.167,2.446-1.167
	c1.507-1.205,3.162-2.748,3.162-2.748c0.716-0.602,2.07-2.296,2.974-3.275c0.265-0.301,0.453-0.226,0.453-0.226s0.225,0.075,0,0.452
	C145.635,57.317,143.789,60.027,141.908,62.286z M138.18,57.393c0,0,0.566,0.677,2.033-0.226c0,0,1.355-0.903,2.635-3.012
	C142.848,54.155,139.762,55.096,138.18,57.393z"/>
<path fill="#FFFFFF" d="M162.877,46.626c-1.055,1.807-1.656,2.56-1.656,2.56c-1.469,2.296-3.051,4.404-3.051,4.404
	c-1.279,1.882-3.273,4.894-3.463,5.12c-2.07,3.275-2.145,5.006-2.145,5.006c0.074,0,0.225-0.113,0.225-0.113
	c2.484-2.033,5.121-5.308,5.121-5.308l1.73-2.07c0.227-0.264,0.413-0.151,0.413-0.151c0.188,0.075,0,0.339,0,0.339
	c-4.026,5.873-4.518,6.512-4.518,6.512c-1.203,1.77-1.507,2.07-1.507,2.07c-0.414,0.452-0.979,0.376-0.979,0.376
	c-0.301,0.038-0.828-0.414-0.828-0.414c-0.941-0.753-1.279-1.28-1.279-1.28c-0.791-0.602-0.264-2.672-0.264-2.672
	c0.264-1.017,0.641-1.581,0.641-1.581l0.074-0.113l-0.074-0.075c-2.522,3.576-3.312,4.856-3.312,4.856l-0.641,1.017
	c-0.15,0.263-0.414,0.263-0.414,0.263c-0.15,0-0.603-0.188-0.603-0.188c-1.281-0.715-1.883-1.355-1.883-1.355
	c-1.582-1.393,0-5.383,0-5.383c0.602-1.543,1.957-3.312,1.957-3.312c0.904-1.205,2.184-2.447,3.84-3.388
	c0.377-0.226,0.791-0.414,1.205-0.564l0.527-0.226c0.338-0.188,0.602,0.075,0.602,0.075c0.377,0.226,0.791,0.64,0.791,0.64
	c0.451,0.339,0.828,0.941,0.941,1.543c0.074,0.075,0.188,0.188,0.188,0.188c0.113,0.113,0.188,0.263,0.188,0.376l0.265-0.339
	c3.575-5.722,3.803-6.249,3.803-6.249c1.543-2.522,1.506-3.764,1.506-3.764c0.113-0.452-0.113-0.941-0.113-0.941
	c-0.037-0.075,0.037-0.15,0.037-0.15c0.037-0.113,0.264-0.038,0.264-0.038c0.865,0.339,1.693,1.167,1.693,1.167
	c1.055,0.979,1.018,1.92,1.018,1.92C163.178,46.099,162.877,46.626,162.877,46.626z M147.141,58.936
	c-1.729,3.275-1.315,4.706-1.315,4.706c0,0.075,0.073,0,0.073,0c4.595-4.592,6.287-6.851,6.287-6.851
	c1.318-1.731,1.656-2.71,1.656-2.71c0.076-0.301,0.037-0.64,0.037-0.64C149.4,54.569,147.141,58.936,147.141,58.936z"/>
<path fill="#FFFFFF" d="M46.316,107.787h1.893l-2.902,13.674h6.234l-0.365,1.677h-8.127L46.316,107.787z"/>
<path fill="#FFFFFF" d="M59.736,107.787h2.537l0.859,15.351h-1.977l-0.195-4.214h-4.9l-2.043,4.214h-1.979L59.736,107.787z
	 M56.77,117.375h4.127l-0.387-7.416h-0.043L56.77,117.375z"/>
<path fill="#FFFFFF" d="M68.318,107.787h4.709c1.998,0,3.719,0.945,3.096,3.934c-0.301,1.396-1.441,2.795-2.924,3.203v0.043
	c1.783,0.453,2.322,1.893,1.912,3.785c-0.645,3.117-2.688,4.386-5.891,4.386h-4.17L68.318,107.787z M67.266,121.587h2.578
	c2,0,2.99-1.354,3.291-2.838c0.451-2.106-0.732-2.924-2.387-2.924H68.49L67.266,121.587z M68.791,114.408h2.172
	c0.795,0,2.645-0.193,3.16-2.559c0.322-1.592-0.279-2.516-2.129-2.516h-2.129L68.791,114.408z"/>
<path fill="#FFFFFF" d="M88.381,115.46c-0.816,3.871-2.408,7.977-6.643,7.977c-4.236,0-4.064-4.105-3.246-7.977
	c0.816-3.869,2.408-7.977,6.643-7.977C89.371,107.484,89.199,111.591,88.381,115.46z M80.469,115.46
	c-0.752,3.547-1.031,6.429,1.592,6.429s3.59-2.882,4.344-6.429c0.752-3.547,1.01-6.428-1.613-6.428S81.223,111.914,80.469,115.46z"
	/>
<path fill="#FFFFFF" d="M93.158,107.787h4.967c2.408,0,3.635,1.418,3.117,3.848c-0.365,1.677-1.311,3.439-3.203,3.869v0.043
	c1.312,0.15,1.828,1.248,1.635,2.56l-0.43,2.623c-0.279,1.699-0.086,2.129,0.301,2.408h-2.279c-0.258-0.322-0.172-1.462-0.043-2.214
	l0.365-2.387c0.301-2.107-0.816-2.236-1.785-2.236h-2.559l-1.461,6.837H89.89L93.158,107.787z M93.568,114.751h1.869
	c1.119,0,3.16,0,3.785-2.967c0.322-1.506-0.496-2.451-2.258-2.451h-2.258L93.568,114.751z"/>
<path fill="#FFFFFF" d="M108.17,107.787h2.537l0.859,15.351h-1.978l-0.194-4.214h-4.9l-2.043,4.214h-1.979L108.17,107.787z
	 M105.203,117.375h4.127l-0.387-7.416H108.9L105.203,117.375z"/>
<path fill="#FFFFFF" d="M116.988,123.136h-1.893l2.901-13.674h-3.849l0.365-1.678h9.609l-0.365,1.678h-3.869L116.988,123.136z"/>
<path fill="#FFFFFF" d="M134.449,115.46c-0.816,3.871-2.408,7.977-6.645,7.977c-4.234,0-4.062-4.105-3.246-7.977
	c0.817-3.869,2.407-7.977,6.645-7.977C135.438,107.484,135.266,111.591,134.449,115.46z M126.537,115.46
	c-0.752,3.547-1.031,6.429,1.592,6.429c2.621,0,3.59-2.882,4.342-6.429s1.01-6.428-1.611-6.428
	C128.236,109.033,127.289,111.914,126.537,115.46z"/>
<path fill="#FFFFFF" d="M139.205,107.787h4.967c2.408,0,3.633,1.418,3.117,3.848c-0.365,1.677-1.312,3.439-3.203,3.869v0.043
	c1.311,0.15,1.826,1.248,1.633,2.56l-0.43,2.623c-0.279,1.699-0.086,2.129,0.301,2.408h-2.279c-0.258-0.322-0.172-1.462-0.043-2.214
	l0.367-2.387c0.301-2.107-0.818-2.236-1.785-2.236h-2.559l-1.463,6.837h-1.891L139.205,107.787z M139.613,114.751h1.871
	c1.117,0,3.16,0,3.783-2.967c0.321-1.506-0.494-2.451-2.259-2.451h-2.258L139.613,114.751z"/>
<path fill="#FFFFFF" d="M149.549,107.787h2.086l1.398,7.18l4.557-7.18h1.979l-6.041,9.33l-1.291,6.021h-1.891l1.289-6.021
	L149.549,107.787z"/>
<g>
	<path fill="#FFFFFF" d="M97.318,80.812h10.186l2.961,6.507c1.256-2.199,2.648-4.353,4.039-6.507h9.379l-7.898,10.59
		c2.332,3.993,0.957,1.828,3.472,5.732l-6.162,6.069l-3.5-7.27l-4.533,7.27h-9.736l8.706-11.711L97.318,80.812z"/>
	<g>
		<g>
			<path fill="#FFFFFF" d="M25.359,103.203c0.684-4.867,1.273-21.605,1.23-30.341h17.467c5.186,0,8.869,1.865,8.869,7.052
				c0,3.956-2.002,6.73-5.641,7.687v0.091c3.547,0.409,5.959,3.185,5.959,6.96c0,5.459-4.092,8.553-10.916,8.553H25.359V103.203z
				 M34.686,97.244h4.367c2.457,0,5.049-0.317,5.049-3.456c0-1.684-0.955-3.003-3.547-3.003h-5.551L34.686,97.244z M35.232,84.825
				h3.639c3.502,0,4.912-1.091,4.912-3.319c0-2.503-2.32-2.685-4.275-2.685h-4.049L35.232,84.825z"/>
			<path fill="#FFFFFF" d="M62.771,83.236l0.092-0.091c1.434-1.614,3.408-2.87,5.607-2.87c0.582,0,1.211,0.043,1.795,0.224
				l0.268,7.224c-0.762-0.225-1.57-0.448-2.332-0.448c-2.691,0-4.666,1.659-5.295,4.263c-0.539,2.288-0.584,6.147-0.584,11.667
				h-8.66c0.494-6.147,0.898-12.339,0.898-22.392h8.303L62.771,83.236z"/>
			<path fill="#FFFFFF" d="M87.09,100.332L87,100.241c-1.84,2.692-4.621,3.5-7.854,3.5c-6.234,0-8.031-3.051-8.031-6.82
				c0-1.437,0.809-11.667,0.809-16.109h8.795c-0.18,3.993-0.809,7.986-0.809,11.936c0,2.154,0.719,3.993,3.186,3.993
				c2.291,0,3.545-1.794,3.994-3.812c0.584-2.514,0.674-7.674,0.807-12.116h8.707c-0.719,7.449-1.078,14.942-1.258,22.391H87.09
				V100.332z"/>
		</g>
		<g>
			<path fill="#FFFFFF" d="M149.561,73.222l-0.944,4.854L128.42,98.429h3.416c4.133,0,8.312,0,12.488-0.269l-1.018,5.032h-24.086
				l-3.984,0.007c6.854-6.695,18.58-18.475,25.08-25.215h-3.863c-3.73,0-7.506,0-11.314,0.226l0.92-4.988H149.561z"/>
			<path fill="#FFFFFF" d="M156.43,81.165c-1.609,6.56-2.865,13.119-4.316,22.028h-6.604c1.863-7.313,3.289-14.672,4.494-22.028
				H156.43z M150.725,77.441l0.746-4.166h6.381l-0.834,4.166H150.725z"/>
			<path fill="#FFFFFF" d="M164.072,84.134h0.09c1.715-2.173,3.742-3.502,6.49-3.502c0.664,0,1.271,0.089,1.871,0.221l-0.642,5.187
				c-0.756-0.267-1.481-0.444-2.323-0.444c-3.191,0-5.336,2.084-6.445,5.188c-0.865,2.394-1.65,7.091-2.057,9.662l-0.435,2.748
				h-6.16c1.386-6.25,2.767-12.189,4.315-22.028h5.896L164.072,84.134z"/>
		</g>
	</g>
</g>
<g>
	<path fill="#FFFFFF" d="M175.145,81.166h-1.639v-0.592h3.989v0.592h-1.646v4.797h-0.705V81.166z"/>
	<path fill="#FFFFFF" d="M182.639,83.596c-0.039-0.744-0.088-1.663-0.088-2.327h-0.017c-0.191,0.624-0.407,1.311-0.681,2.047
		l-0.951,2.614h-0.526l-0.88-2.566c-0.256-0.76-0.464-1.455-0.615-2.095h-0.017c-0.017,0.671-0.056,1.575-0.104,2.383l-0.145,2.311
		h-0.663l0.376-5.389h0.888l0.919,2.607c0.225,0.664,0.399,1.263,0.545,1.823h0.016c0.145-0.543,0.336-1.144,0.576-1.823
		l0.959-2.607h0.888l0.336,5.389h-0.688L182.639,83.596z"/>
</g>
</svg>
